<svg width="31" height="31" viewBox="0 0 31 31" fill="none" xmlns="http://www.w3.org/2000/svg">
<path d="M26.4635 21.9444H8.07321L4.53662 5.83331H30L26.4635 21.9444Z" fill="black"/>
<path d="M1 1H3.47561L4.53659 5.83333M4.53659 5.83333L8.07317 21.9444H26.4634L30 5.83333H4.53659Z" stroke="black" stroke-width="2" stroke-linecap="round" stroke-linejoin="round"/>
<path d="M8.07312 30C9.24504 30 10.1951 28.918 10.1951 27.5834C10.1951 26.2487 9.24504 25.1667 8.07312 25.1667C6.9012 25.1667 5.95117 26.2487 5.95117 27.5834C5.95117 28.918 6.9012 30 8.07312 30Z" stroke="black" stroke-width="2" stroke-linecap="round" stroke-linejoin="round"/>
<path d="M26.4633 30C27.6352 30 28.5852 28.918 28.5852 27.5834C28.5852 26.2487 27.6352 25.1667 26.4633 25.1667C25.2913 25.1667 24.3413 26.2487 24.3413 27.5834C24.3413 28.918 25.2913 30 26.4633 30Z" stroke="black" stroke-width="2" stroke-linecap="round" stroke-linejoin="round"/>
</svg>
