<svg width="28" height="28" viewBox="0 0 28 28" fill="none" xmlns="http://www.w3.org/2000/svg">
<path d="M15.4392 0C17.0141 0.0041999 17.8135 0.0125997 18.5037 0.0321992L18.7753 0.0419989C19.0888 0.0531987 19.3982 0.0671983 19.772 0.0839979C21.2615 0.153996 22.2779 0.389191 23.1696 0.734982C24.0936 1.09057 24.8719 1.57216 25.6503 2.34914C26.3624 3.04875 26.9133 3.89537 27.2644 4.82988C27.6102 5.72166 27.8454 6.73804 27.9154 8.229C27.9322 8.60139 27.9462 8.91078 27.9574 9.22578L27.9658 9.49737C27.9868 10.1862 27.9952 10.9855 27.998 12.5605L27.9994 13.6049V15.4388C28.0028 16.46 27.9921 17.4811 27.9672 18.502L27.9588 18.7735C27.9476 19.0885 27.9336 19.3979 27.9168 19.7703C27.8468 21.2613 27.6088 22.2763 27.2644 23.1694C26.9133 24.104 26.3624 24.9506 25.6503 25.6502C24.9507 26.3623 24.1041 26.9132 23.1696 27.2643C22.2779 27.6101 21.2615 27.8453 19.772 27.9153L18.7753 27.9573L18.5037 27.9657C17.8135 27.9853 17.0141 27.9951 15.4392 27.9979L14.3949 27.9993H12.5624C11.5408 28.0029 10.5192 27.9922 9.49792 27.9671L9.22633 27.9587C8.894 27.9461 8.56175 27.9317 8.22958 27.9153C6.74006 27.8453 5.72371 27.6101 4.83055 27.2643C3.89656 26.913 3.05046 26.3622 2.35128 25.6502C1.63864 24.9507 1.08729 24.1041 0.735759 23.1694C0.389977 22.2777 0.154788 21.2613 0.084792 19.7703L0.0427941 18.7735L0.0357946 18.502C0.00998841 17.4811 -0.00167893 16.46 0.000796276 15.4388V12.5605C-0.00307858 11.5394 0.00718866 10.5182 0.0315948 9.49737L0.0413943 9.22578C0.0525937 8.91078 0.066593 8.60139 0.0833921 8.229C0.153389 6.73804 0.388577 5.72306 0.734359 4.82988C1.08671 3.89498 1.63903 3.04834 2.35268 2.34914C3.05146 1.63733 3.89706 1.08648 4.83055 0.734982C5.72371 0.389191 6.73866 0.153996 8.22958 0.0839979C8.60196 0.0671983 8.91275 0.0531987 9.22633 0.0419989L9.49792 0.0335991C10.5187 0.00872558 11.5398 -0.00200853 12.561 0.00139986L15.4392 0ZM14.0001 6.99983C12.1437 6.99983 10.3633 7.73731 9.05059 9.05003C7.7379 10.3628 7.00044 12.1432 7.00044 13.9997C7.00044 15.8561 7.7379 17.6366 9.05059 18.9493C10.3633 20.262 12.1437 20.9995 14.0001 20.9995C15.8565 20.9995 17.6369 20.262 18.9496 18.9493C20.2623 17.6366 20.9997 15.8561 20.9997 13.9997C20.9997 12.1432 20.2623 10.3628 18.9496 9.05003C17.6369 7.73731 15.8565 6.99983 14.0001 6.99983ZM14.0001 9.79976C14.5516 9.79967 15.0978 9.90821 15.6073 10.1192C16.1169 10.3302 16.5799 10.6395 16.97 11.0294C17.36 11.4193 17.6695 11.8823 17.8806 12.3918C18.0918 12.9013 18.2005 13.4474 18.2006 13.999C18.2007 14.5505 18.0921 15.0967 17.8812 15.6062C17.6702 16.1158 17.3609 16.5789 16.971 16.9689C16.5811 17.359 16.1181 17.6684 15.6086 17.8796C15.0991 18.0907 14.553 18.1995 14.0015 18.1996C12.8876 18.1996 11.8194 17.7571 11.0318 16.9694C10.2442 16.1818 9.8017 15.1135 9.8017 13.9997C9.8017 12.8858 10.2442 11.8175 11.0318 11.0299C11.8194 10.2422 12.8876 9.79976 14.0015 9.79976M21.3511 4.89988C20.887 4.89988 20.4419 5.08425 20.1137 5.41243C19.7856 5.74061 19.6012 6.18572 19.6012 6.64984C19.6012 7.11396 19.7856 7.55907 20.1137 7.88725C20.4419 8.21543 20.887 8.3998 21.3511 8.3998C21.8152 8.3998 22.2603 8.21543 22.5885 7.88725C22.9167 7.55907 23.101 7.11396 23.101 6.64984C23.101 6.18572 22.9167 5.74061 22.5885 5.41243C22.2603 5.08425 21.8152 4.89988 21.3511 4.89988Z" fill="black"/>
</svg>
