<svg width="26" height="26" viewBox="0 0 26 26" fill="none" xmlns="http://www.w3.org/2000/svg">
<path fill-rule="evenodd" clip-rule="evenodd" d="M11.7065 4.38161e-08C9.83634 0.000202534 7.99345 0.448387 6.33209 1.30703C4.67073 2.16568 3.23924 3.40981 2.15747 4.93526C1.07569 6.46071 0.375108 8.2231 0.114359 10.0749C-0.14639 11.9267 0.0402847 13.814 0.658757 15.5788C1.27723 17.3437 2.3095 18.9347 3.66916 20.2187C5.02882 21.5027 6.6763 22.4423 8.47368 22.9589C10.2711 23.4754 12.1661 23.5539 14 23.1878C15.834 22.8217 17.5535 22.0215 19.0147 20.8544L23.7954 25.6348C24.0408 25.8718 24.3694 26.0029 24.7104 26C25.0515 25.997 25.3778 25.8602 25.619 25.619C25.8602 25.3778 25.997 25.0516 26 24.7105C26.0029 24.3694 25.8718 24.0409 25.6348 23.7955L20.8542 19.0151C22.2305 17.2926 23.0924 15.2166 23.3408 13.0259C23.5891 10.8352 23.2138 8.61891 22.258 6.63212C21.3022 4.64532 19.8048 2.96879 17.9381 1.79548C16.0714 0.622183 13.9113 -0.000190668 11.7065 4.38161e-08ZM3.90132 11.7072C3.90132 10.6823 4.10321 9.66735 4.49545 8.72043C4.8877 7.77351 5.46263 6.91311 6.1874 6.18837C6.91218 5.46363 7.77262 4.88873 8.71958 4.4965C9.66655 4.10427 10.6815 3.9024 11.7065 3.9024C12.7315 3.9024 13.7464 4.10427 14.6934 4.4965C15.6404 4.88873 16.5008 5.46363 17.2256 6.18837C17.9504 6.91311 18.5253 7.77351 18.9175 8.72043C19.3098 9.66735 19.5117 10.6823 19.5117 11.7072C19.5117 13.7772 18.6893 15.7623 17.2256 17.226C15.7618 18.6897 13.7766 19.512 11.7065 19.512C9.63644 19.512 7.65116 18.6897 6.1874 17.226C4.72365 15.7623 3.90132 13.7772 3.90132 11.7072Z" fill="black"/>
</svg>
