<svg width="26" height="26" viewBox="0 0 26 26" fill="none" xmlns="http://www.w3.org/2000/svg">
<path d="M12.6783 0H12.8184C14.1129 0.00672391 20.6717 0.0739634 22.4401 0.750837C22.9748 0.957414 23.4619 1.36007 23.8529 1.91857C24.244 2.47707 24.5251 3.17186 24.6684 3.93349C24.8275 4.78518 24.9393 5.91256 25.0148 7.07579L25.0306 7.30889L25.0652 7.89163L25.0778 8.12472C25.1802 10.1733 25.1928 12.0918 25.1944 12.511V12.679C25.1928 13.1139 25.1786 15.1624 25.0652 17.2961L25.0526 17.5315L25.0385 17.7646C24.9597 19.0466 24.8432 20.3196 24.6684 21.2565C24.5251 22.0181 24.244 22.7129 23.8529 23.2714C23.4619 23.8299 22.9748 24.2326 22.4401 24.4392C20.6134 25.1384 13.6704 25.1878 12.7082 25.19H12.4846C11.998 25.19 9.98547 25.1766 7.87531 25.0735L7.6076 25.06L7.4706 25.051L7.20132 25.0353L6.93203 25.0197C5.18406 24.9098 3.51956 24.7328 2.75266 24.4369C2.21823 24.2305 1.7312 23.8282 1.34019 23.2701C0.949183 22.712 0.667887 22.0177 0.524391 21.2565C0.349594 20.3219 0.233062 19.0466 0.154325 17.7646L0.141727 17.5292L0.129129 17.2961C0.0509642 15.7775 0.00789785 14.2555 0 12.7328L0 12.4572C0.00314949 11.9753 0.0157475 10.31 0.100784 8.47212L0.111807 8.24127L0.116531 8.12472L0.129129 7.89163L0.163774 7.30889L0.179521 7.07579C0.255109 5.91256 0.366916 4.78294 0.525965 3.93349C0.669221 3.17186 0.95041 2.47707 1.34143 1.91857C1.73246 1.36007 2.21962 0.957414 2.75423 0.750837C3.52113 0.459467 5.18564 0.280163 6.93361 0.168098L7.20132 0.152408L7.47217 0.138961L7.6076 0.132237L7.87688 0.116548C9.37558 0.047972 10.8749 0.00986567 12.3744 0.00224141L12.6783 0ZM10.0784 7.19458V17.9932L16.6246 12.5961L10.0784 7.19458Z" fill="black"/>
</svg>
