<svg width="18" height="20" viewBox="0 0 18 20" fill="none" xmlns="http://www.w3.org/2000/svg">
<path d="M8.92346 6.98129L7.06248 8.46514C7.30848 9.21343 7.6521 9.93358 8.08636 10.6109C8.53931 11.2833 9.08511 11.9027 9.71106 12.4548L12.1211 11.7948C13.4713 11.4249 14.9452 11.8048 15.8431 12.7547L17.2157 14.2066C17.7715 14.7894 18.0501 15.5416 17.9926 16.3039C17.935 17.0661 17.5458 17.7785 16.9074 18.2902C14.6684 20.106 11.221 20.7199 8.63992 18.9181C6.37045 17.3317 4.45089 15.3858 2.97822 13.1787C1.50181 10.9824 0.513316 8.55473 0.0663618 6.02738C-0.4287 3.18366 1.91384 0.907879 4.8347 0.131955C6.57642 -0.332 8.43515 0.463922 9.07423 1.94778L9.82807 3.69761C10.3231 4.84949 9.96759 6.14937 8.92346 6.98129Z" fill="black"/>
</svg>
