<svg width="28" height="28" viewBox="0 0 28 28" fill="none" xmlns="http://www.w3.org/2000/svg">
<path fill-rule="evenodd" clip-rule="evenodd" d="M19.7436 28C21.9333 28 24.0334 27.1301 25.5818 25.5818C27.1301 24.0334 28 21.9333 28 19.7436V8.25641C28 6.06667 27.1301 3.96662 25.5818 2.41825C24.0334 0.869869 21.9333 0 19.7436 0H8.25641C6.06667 0 3.96662 0.869869 2.41825 2.41825C0.869869 3.96662 0 6.06667 0 8.25641V19.7436C0 21.9333 0.869869 24.0334 2.41825 25.5818C3.96662 27.1301 6.06667 28 8.25641 28H19.7436ZM16.4568 5.04431C16.3756 4.80228 16.211 4.59698 15.9924 4.46505C15.7738 4.33313 15.5155 4.28314 15.2635 4.32402C15.0114 4.36491 14.7821 4.49399 14.6165 4.68825C14.4508 4.88251 14.3596 5.12931 14.359 5.38462V18.3077C14.359 18.9467 14.1695 19.5713 13.8145 20.1026C13.4595 20.6339 12.9549 21.048 12.3646 21.2925C11.7742 21.5371 11.1246 21.601 10.4979 21.4764C9.87121 21.3517 9.29554 21.044 8.84371 20.5922C8.39188 20.1404 8.08417 19.5647 7.95951 18.938C7.83485 18.3113 7.89883 17.6617 8.14336 17.0713C8.38789 16.481 8.80199 15.9764 9.33329 15.6214C9.86458 15.2664 10.4892 15.0769 11.1282 15.0769C11.4138 15.0769 11.6877 14.9635 11.8897 14.7615C12.0917 14.5595 12.2051 14.2856 12.2051 14C12.2051 13.7144 12.0917 13.4405 11.8897 13.2385C11.6877 13.0365 11.4138 12.9231 11.1282 12.9231C10.0632 12.9231 9.02217 13.2389 8.13667 13.8305C7.25118 14.4222 6.56102 15.2632 6.15347 16.2471C5.74592 17.231 5.63929 18.3137 5.84705 19.3582C6.05482 20.4027 6.56766 21.3621 7.32071 22.1152C8.07376 22.8682 9.03321 23.3811 10.0777 23.5888C11.1222 23.7966 12.2049 23.69 13.1888 23.2824C14.1727 22.8749 15.0137 22.1847 15.6054 21.2992C16.197 20.4137 16.5128 19.3727 16.5128 18.3077V8.91405C17.6142 9.93641 19.1649 10.7692 21.1795 10.7692C21.4651 10.7692 21.739 10.6558 21.941 10.4538C22.143 10.2518 22.2564 9.97793 22.2564 9.69231C22.2564 9.40669 22.143 9.13277 21.941 8.93081C21.739 8.72885 21.4651 8.61538 21.1795 8.61538C19.7838 8.61538 18.7227 8.04103 17.9358 7.29579C17.1317 6.5319 16.6464 5.61149 16.4568 5.04431Z" fill="black"/>
</svg>
